<svg width="649" height="649" viewBox="0 0 649 649" fill="none" xmlns="http://www.w3.org/2000/svg">
<path fill-rule="evenodd" clip-rule="evenodd" d="M326.679 43C396.767 59.9578 470.779 59.9578 575 139.064V278.395C575 529.832 455.126 529.832 326.577 606C171.628 529.688 75 508.691 75 278.395V139.064C181.763 59.9976 255.6 59.9578 326.679 43ZM342.575 241.358L336.831 241.407V538.998L341.472 535.974C373.329 514.66 391.814 490.39 396.93 463.163L396.767 314.324L401.966 315.269C426.279 320.224 451.361 332.911 477.209 353.327C481.097 313.187 469.151 285.566 441.37 270.461C404.094 250.194 369.248 240.508 336.831 241.407L342.575 241.358ZM315.426 107.44C298.076 109.135 277.57 113.375 255.489 120.158L255.931 363.157C255.931 381.422 242.294 395.723 225.044 395.723C207.795 395.723 195.663 380.676 195.663 363.503V139.235C168.775 153.084 148.533 165.334 134.937 175.983C134.937 441.509 127.344 422.509 315.426 538.998V107.44ZM336.831 107.44V175.288L344.422 176.295C424.657 187.615 481.543 217.521 515.076 266.011C521.631 216.005 513.216 182.373 489.827 165.114C451.772 137.034 400.771 117.809 336.831 107.44Z" fill="#01F496"/>
</svg>
